<svg xmlns="http://www.w3.org/2000/svg" width="459.4" height="158.53" viewBox="0 0 459.4 158.53"><g id="ebea1ccd-0308-41c9-adbf-b1c00759443d" data-name="Capa 2"><g id="ed749ee8-b5e6-49a7-8a72-ea1e462a41d3" data-name="Capa 1"><path d="M180,92.73a22.18,22.18,0,0,1,22.08-22.16,51.51,51.51,0,0,1,10.55.91V51.06c0-1.44,9.88-1.44,9.88,0v68.73c0,1.5-9.88,1.5-9.88,0v-.68a21.44,21.44,0,0,1-8.74,1.81h-1.81A22.12,22.12,0,0,1,180,98.84Zm32.63-10.17a22.9,22.9,0,0,0-8.74-2h-1.81a12.21,12.21,0,0,0-12.21,12.21v6.11A12.26,12.26,0,0,0,202.07,111h1.81a12.23,12.23,0,0,0,8.74-3.69Z" style="fill:#062a30"></path><path d="M257.77,120.92a22.26,22.26,0,0,1-22.08-22.08V92.73a22.06,22.06,0,0,1,22.08-22.08h.38a22.06,22.06,0,0,1,22.08,22.08v2.41c0,2.49-.53,5.2-2,5.2H245.64A12.44,12.44,0,0,0,257.77,111h1.88a12.53,12.53,0,0,0,10.48-6c1.36-2.34,9.87,2.56,8.52,5a22.27,22.27,0,0,1-19.07,10.93Zm0-40.4a12.22,12.22,0,0,0-12.13,10.86h24.64a12.24,12.24,0,0,0-12.13-10.86Z" style="fill:#062a30"></path><path d="M293.42,74.57c6.71-2.56,11.15-3.92,20.35-3.92a22.06,22.06,0,0,1,22.08,22.08v27.06c0,1.5-9.87,1.5-9.87,0V92.73a12.21,12.21,0,0,0-12.21-12.21H312a26.19,26.19,0,0,0-8.74,2v37.23c0,1.5-9.87,1.5-9.87,0Z" style="fill:#062a30"></path><path d="M354.39,79.77h-6.48c-1.5,0-1.5-9.12,0-9.12h6.48V57.24c0-1.44,9.88-1.44,9.88,0V70.65h9.19c1.51,0,1.51,9.12,0,9.12h-9.19v27.58c0,4,3.16,3.69,7.16,3.69h2c1.51,0,1.51,9.88,0,9.88h-2c-10.93,0-17-1.74-17-12.89Z" style="fill:#062a30"></path><path d="M416.8,119.11a22.74,22.74,0,0,1-8.75,1.81h-1.8A22.2,22.2,0,0,1,384,98.84V92.73a22.15,22.15,0,0,1,22.24-22.08c9.27,0,13.79,1.36,20.5,3.92v45.22c0,1.5-9.95,1.5-9.95,0Zm0-36.55a26.19,26.19,0,0,0-8.75-2h-1.8A12.27,12.27,0,0,0,394,92.73v6.11A12.27,12.27,0,0,0,406.25,111h1.8a12.25,12.25,0,0,0,8.75-3.69Z" style="fill:#062a30"></path><path d="M442.2,51c0-1.21,9.87-1.21,9.87,0v52.08c0,5,.53,6.18,1.05,6.85.76,1,3.55,1.06,4.15,1.06,2.64,0,2.86,10-.15,10-3.7-.08-9,.37-12-2.19-2-2.18-2.93-5-2.93-8.67Z" style="fill:#062a30"></path><path d="M180,14.43a24,24,0,0,1,11.08-2.31A8.85,8.85,0,0,1,196.85,14,23.45,23.45,0,0,1,207,12.12c6.61,0,10.1,5.82,10.1,13V41.05c0,.89-5.38.89-5.38,0V25.12c0-4-1.07-7.18-4.72-7.18h-1a12.56,12.56,0,0,0-4.76,1.19V41.05c0,.89-5.38.89-5.38,0V25.12c0-4-1.07-7.18-4.77-7.18h-.94a12.56,12.56,0,0,0-4.76,1.19V41.05c0,.89-5.38.89-5.38,0Z" style="fill:#062f6d"></path><path d="M242.14,40.65a11.47,11.47,0,0,1-4.76,1.07h-1c-6.69,0-12.11-5.86-12.11-13v-3.6c0-7.18,5.42-13,12.11-13a24.79,24.79,0,0,1,11.17,2.31V41.05c0,.89-5.42.89-5.42,0Zm0-21.52a13.35,13.35,0,0,0-4.76-1.19h-1a7,7,0,0,0-6.69,7.18v3.6a7,7,0,0,0,6.69,7.19h1a6.43,6.43,0,0,0,4.76-2.18Z" style="fill:#062f6d"></path><path d="M256,14.43a24.59,24.59,0,0,1,11.09-2.31c6.65,0,12,5.82,12,13V41.05c0,.89-5.38.89-5.38,0V25.12a6.94,6.94,0,0,0-6.65-7.18h-.95a13.35,13.35,0,0,0-4.76,1.19V41.05c0,.89-5.38.89-5.38,0Z" style="fill:#062f6d"></path><path d="M298.31,41.72c-6.44,0-12-5.68-12-13V25.17c0-6.52,4.76-13,12-13.05h1a12,12,0,0,1,10.39,6.48c.74,1.38-3.9,4.31-4.64,2.89a6.66,6.66,0,0,0-5.71-3.55h-1c-4,0-6.65,3.64-6.65,7.23v3.55c0,4,3.08,7.19,6.61,7.19h1.07a6.65,6.65,0,0,0,5.71-3.51c.74-1.42,5.38,1.51,4.64,2.89a11.92,11.92,0,0,1-10.39,6.43Z" style="fill:#062f6d"></path><path d="M317,.63c0-.84,5.38-.84,5.38,0V13.19a11.51,11.51,0,0,1,4.77-1.07H328c6.65,0,12,5.82,12,13V41.05c0,.89-5.38.89-5.38,0V25.12A6.93,6.93,0,0,0,328,17.94h-.94a6.38,6.38,0,0,0-4.77,2.17V41.05c0,.89-5.38.89-5.38,0Z" style="fill:#062f6d"></path><path d="M359.29,41.72c-6.45,0-12-5.72-12-13v-3.6c0-7.18,5.38-13,12-13h.2c6.66,0,12,5.82,12,13v1.42c0,1.47-.29,3.07-1.11,3.07H352.68a7,7,0,0,0,6.61,6.3h1A6.75,6.75,0,0,0,366,32.36c.74-1.38,5.38,1.51,4.64,2.93a12,12,0,0,1-10.39,6.43Zm0-23.78a6.87,6.87,0,0,0-6.61,6.39h13.43a6.89,6.89,0,0,0-6.62-6.39Z" style="fill:#062f6d"></path><path d="M387.78,53.88a9.85,9.85,0,0,1-1-.09,8.58,8.58,0,0,1-2.14-.58,6.63,6.63,0,0,1-2.05-1.51,8.82,8.82,0,0,1-1.6-2.44c-.66-1.42,4.19-4,4.84-2.57.21.44,1.65,2.26,2.63,2.26h3.25c2.13,0,3.94-2.79,3.94-5.1v-3.2a10.79,10.79,0,0,1-4.77,1.07h-.94c-6.65,0-12-5.81-12-13v-3.6c0-7.14,5.38-13,12-13A23.84,23.84,0,0,1,401,14.48V43.85c0,5.54-4.15,10-9.28,10Zm7.85-34.7a12.38,12.38,0,0,0-4.77-1.24h-.94a7,7,0,0,0-6.65,7.18v3.6a6.94,6.94,0,0,0,6.65,7.19h.94a6.39,6.39,0,0,0,4.77-2.18Z" style="fill:#062f6d"></path><path d="M408.19,25.12c0-7.18,5.38-13,12-13h.95c6.65,0,12,5.82,12,13v3.6c0,7.19-5.38,13-12,13h-.95c-6.65,0-12-5.81-12-13Zm19.63,0a6.94,6.94,0,0,0-6.65-7.18h-.95a6.94,6.94,0,0,0-6.65,7.18v3.6a6.94,6.94,0,0,0,6.65,7.19h.95a6.94,6.94,0,0,0,6.65-7.19Z" style="fill:#062f6d"></path><path d="M447.53,29.16l-.09,0a8.66,8.66,0,0,1-4.14-1.42A7.93,7.93,0,0,1,440,21a8.37,8.37,0,0,1,3.78-7.27A11.35,11.35,0,0,1,450,12.12a20.36,20.36,0,0,1,8.29,1.82c1.36.67-.82,6-2.17,5.37A15.43,15.43,0,0,0,450,17.94a7,7,0,0,0-3.41.84A2.38,2.38,0,0,0,445.43,21a1.81,1.81,0,0,0,.78,1.73,4.14,4.14,0,0,0,1.44.54h.17a20.63,20.63,0,0,1,6.32.88c2.91,1.07,5.26,3.64,5.26,8.39a8.66,8.66,0,0,1-6,8.52c-3.45,1.11-8.09.66-13.68-1-1.43-.45,0-6.08,1.48-5.64,5.22,1.6,8.67,1.64,10.6,1a2.76,2.76,0,0,0,2.17-3,3.17,3.17,0,0,0-.45-2,2.18,2.18,0,0,0-1.15-.85,9.89,9.89,0,0,0-2.3-.44c-.49,0-.94,0-1.35-.09Z" style="fill:#062f6d"></path><path d="M180.92,158.53c-.42,0-.79-.07-.79-.21V146.66c0-.27,1.7-.27,1.7,0v10.17h5.43c.25,0,.25,1.7,0,1.7Z" style="fill:#062f6d"></path><path d="M194.14,146.67c.06-.15.48-.21,1-.21s.93.06,1,.21L200,158.32c0,.28-1.66.27-1.79,0L197,154.77h-3.77l-1.17,3.55c-.13.27-1.8.28-1.8,0Zm-.33,6.42h2.68L195.15,149Z" style="fill:#062f6d"></path><path d="M203.74,158.53c-.52,0-.75-.08-.75-.15V146.62c0-.12.51-.17,1-.16h2.71a3.51,3.51,0,0,1,3.49,3.53,3,3,0,0,1-.8,2.09,3.53,3.53,0,0,1,1.52,2.92,3.49,3.49,0,0,1-3.46,3.53Zm.95-10.26v3.21h2.16a1.56,1.56,0,0,0,1.61-1.49,1.78,1.78,0,0,0-1.8-1.72Zm0,4.87v3.58h2.72a1.75,1.75,0,0,0,1.77-1.72,1.89,1.89,0,0,0-1.61-1.86Z" style="fill:#062f6d"></path><path d="M214.12,151.72a5.07,5.07,0,0,1,4.86-5.26h.32a5.07,5.07,0,0,1,4.88,5.26v1.54a5.08,5.08,0,0,1-4.88,5.27H219a5.08,5.08,0,0,1-4.86-5.27Zm8.36,0a3.31,3.31,0,0,0-3.18-3.43H219a3.31,3.31,0,0,0-3.16,3.43v1.54a3.3,3.3,0,0,0,3.16,3.43h.32a3.31,3.31,0,0,0,3.18-3.43Z" style="fill:#062f6d"></path><path d="M231.42,154.41a.56.56,0,0,0-.5-.37h-1.79v4.32c0,.21-1.71.21-1.71,0V146.62c0-.09.36-.16.82-.17h3.83a3.82,3.82,0,0,1,3.49,3.85,3.75,3.75,0,0,1-2.37,3.59l2.37,4.44c0,.27-1.89.26-2,0Zm-2.29-6.14v4.11h2.94c1,0,1.8-1.2,1.8-2.08a2.07,2.07,0,0,0-1.8-2Z" style="fill:#062f6d"></path><path d="M242.26,146.67c.06-.15.48-.21,1-.21s.94.06,1,.21l3.82,11.65c0,.28-1.66.27-1.79,0l-1.17-3.55h-3.77l-1.18,3.55c-.13.27-1.79.28-1.79,0Zm-.33,6.42h2.68L243.27,149Z" style="fill:#062f6d"></path><path d="M252.56,148.29h-3.39a3,3,0,0,1,0-1.83h8.48a3,3,0,0,1,0,1.83h-3.4v10.09c0,.21-1.69.21-1.69,0Z" style="fill:#062f6d"></path><path d="M260.13,151.72a5.07,5.07,0,0,1,4.86-5.26h.33a5.07,5.07,0,0,1,4.87,5.26v1.54a5.08,5.08,0,0,1-4.87,5.27H265a5.08,5.08,0,0,1-4.86-5.27Zm8.36,0a3.31,3.31,0,0,0-3.17-3.43H265a3.31,3.31,0,0,0-3.16,3.43v1.54a3.3,3.3,0,0,0,3.16,3.43h.33a3.3,3.3,0,0,0,3.17-3.43Z" style="fill:#062f6d"></path><path d="M277.43,154.41a.56.56,0,0,0-.5-.37h-1.79v4.32c0,.21-1.7.21-1.7,0V146.62c0-.09.35-.16.82-.17h3.82a3.83,3.83,0,0,1,3.5,3.85,3.76,3.76,0,0,1-2.38,3.59l2.38,4.44c0,.27-1.9.26-2,0Zm-2.29-6.14v4.11h2.94c1,0,1.81-1.2,1.81-2.08a2.07,2.07,0,0,0-1.81-2Z" style="fill:#062f6d"></path><path d="M284.82,146.62c0-.21,1.71-.21,1.71,0v11.76c0,.21-1.71.21-1.71,0Z" style="fill:#062f6d"></path><path d="M289.77,151.72a5.08,5.08,0,0,1,4.87-5.26H295a5.08,5.08,0,0,1,4.88,5.26v1.54a5.09,5.09,0,0,1-4.88,5.27h-.32a5.09,5.09,0,0,1-4.87-5.27Zm8.37,0a3.31,3.31,0,0,0-3.18-3.43h-.32a3.31,3.31,0,0,0-3.16,3.43v1.54a3.3,3.3,0,0,0,3.16,3.43H295a3.31,3.31,0,0,0,3.18-3.43Z" style="fill:#062f6d"></path><path d="M139.07,74.25l.18-22.74a38.29,38.29,0,0,0-11.72-28.6,40.45,40.45,0,0,0-52.27-4.1,39.06,39.06,0,0,0-23.63-7.69A39.37,39.37,0,0,0,23,22.91,38.9,38.9,0,0,0,11.1,51.48V74.25H0V51.48C0,37.19,4.94,25.3,15.11,15.13S37.16,0,51.45,0A51.42,51.42,0,0,1,73,5l2,1,2.06-1A51.34,51.34,0,0,1,98.71,0C113,0,124.93,5,135.16,15.14s15.18,22,15.18,36.34V74.25Z" style="fill:#062f6d"></path><path d="M122.53,120.86a25.72,25.72,0,0,1-20-8.76L99,108.24,95.36,112c-5.75,6-12.33,8.86-20.1,8.86A26.43,26.43,0,0,1,55.19,112l-3.53-3.72L48.1,112A26.71,26.71,0,0,1,28,120.68a26.82,26.82,0,0,1-19.73-8.21A26.3,26.3,0,0,1,.08,95H11.23a16.44,16.44,0,0,0,4.71,9.79,16,16,0,0,0,11.88,5,16.37,16.37,0,0,0,11.92-5,16.37,16.37,0,0,0,5-11.92V69.23a6.89,6.89,0,0,1,6.73-6.72,6.89,6.89,0,0,1,6.73,6.72V92.87a16.2,16.2,0,0,0,5,12A16.85,16.85,0,0,0,87,104.79a16.33,16.33,0,0,0,5-11.92V69.23a6.27,6.27,0,0,1,2-4.71,6.73,6.73,0,0,1,11.44,4.71V92.87a16.2,16.2,0,0,0,5,12,16.47,16.47,0,0,0,11.87,4.85A16.64,16.64,0,0,0,138.94,95h11.33a28,28,0,0,1-27.74,25.91Z" style="fill:#062f6d"></path><rect x="0.08" y="146.74" width="150.27" height="11.79" style="fill:#062f6d"></rect></g></g></svg>